<?xml version="1.0" encoding="UTF-8" standalone="no"?>
<!-- Created with Inkscape (http://www.inkscape.org/) -->

<svg
   width="53.667549mm"
   height="24.408321mm"
   viewBox="0 0 53.667549 24.408321"
   version="1.1"
   id="svg1"
   xmlns="http://www.w3.org/2000/svg"
   xmlns:svg="http://www.w3.org/2000/svg">
  <defs
     id="defs1" />
  <g
     id="layer3"
     style="display:none"
     transform="translate(-78.599336,-54.493832)">
    <circle
       style="fill:#ffffff;fill-opacity:1;stroke:#000000;stroke-width:0.500542;stroke-dasharray:none;stroke-opacity:1"
       id="path2"
       cx="103.79839"
       cy="68.160294"
       r="39.389484" />
  </g>
  <g
     id="layer2"
     transform="matrix(1.1564567,0,0,1.1564567,-89.743465,-28.47387)">
    <path
       id="path1-8"
       style="font-size:40px;line-height:1.6;font-family:Allerta;-inkscape-font-specification:'Allerta, Normal';text-align:center;text-anchor:middle;white-space:pre;display:inline;fill:#31cd3a;fill-opacity:1;stroke:none;stroke-width:1.99558;stroke-dasharray:none;stroke-opacity:1"
       d="m 77.602098,24.621648 v 3.977424 c 0.43488,0.11064 0.833661,0.05136 1.253418,-0.100988 0.408481,-0.148255 0.830443,-0.413044 1.262802,-0.739093 v -3.137343 z m 2.51622,4.36127 c -0.294449,0.182715 -0.600758,0.339656 -0.923195,0.456682 -0.496518,0.180206 -1.036119,0.243594 -1.593025,0.151035 v 4.856382 l 2.51622,-0.53935 z m 0,5.948039 -2.51622,0.53935 v 1.041163 l 2.51622,-0.538009 z m 0,2.064453 -2.51622,0.53935 v 1.05591 l 2.51622,-0.538456 z m 0,2.078753 -2.51622,0.53935 v 0.20868 h 2.51622 z" />
  </g>
  <g
     id="layer1"
     transform="translate(-78.599336,-54.493832)">
    <path
       d="m 94.56462,66.217865 c 0.164999,0.632498 0.247499,1.340619 0.247499,2.124362 0,0.783744 -0.09625,1.546864 -0.288751,2.289361 -0.178748,0.728744 -0.460621,1.374989 -0.845618,1.938734 -0.371248,0.563745 -0.845619,1.017492 -1.423114,1.361243 -0.563745,0.329997 -1.230614,0.494996 -2.000609,0.494996 -0.412499,0 -0.811248,-0.04125 -1.196245,-0.123751 -0.384997,-0.0825 -0.728744,-0.192497 -1.03124,-0.329998 -0.3025,-0.15125 -0.556875,-0.309374 -0.763124,-0.474373 -0.192497,-0.178748 -0.30937,-0.36437 -0.350621,-0.556867 v 5.960582 h -2.51623 V 62.691013 h 2.248108 l 0.268122,1.175621 c 0.274998,-0.384997 0.687495,-0.694371 1.237491,-0.928122 0.563745,-0.233748 1.182492,-0.350622 1.85624,-0.350622 0.453746,0 0.914367,0.06187 1.381862,0.185623 0.467499,0.123752 0.900621,0.330001 1.299367,0.618748 0.412499,0.288747 0.783747,0.66687 1.113745,1.134369 0.329998,0.467495 0.584371,1.03124 0.763118,1.691235 z m -5.135588,6.269957 c 0.412495,0 0.783742,-0.103125 1.11374,-0.309374 0.343747,-0.206246 0.632496,-0.481244 0.866247,-0.824994 0.247496,-0.357496 0.439995,-0.776868 0.577496,-1.258115 0.137497,-0.494997 0.206246,-1.017493 0.206246,-1.56749 0,-0.536247 -0.06187,-1.044992 -0.185623,-1.526236 C 91.88339,66.520365 91.70464,66.094117 91.470889,65.722869 91.25089,65.35162 90.975892,65.055997 90.645895,64.835999 90.32965,64.616 89.958403,64.506001 89.532155,64.506001 c -0.412499,0 -0.790621,0.103125 -1.134368,0.309374 -0.343747,0.206249 -0.63937,0.488122 -0.88687,0.845618 -0.247497,0.34375 -0.439995,0.756247 -0.577496,1.237491 -0.123749,0.467499 -0.185623,0.976246 -0.185623,1.526243 0,0.549996 0.055,1.072492 0.164999,1.567489 0.123748,0.481247 0.302498,0.907493 0.536249,1.278738 0.233747,0.371249 0.51562,0.666872 0.845618,0.88687 0.329997,0.219999 0.70812,0.329998 1.134368,0.329998 z m 8.084944,-9.384311 v -0.412498 h 2.516234 v 6.331833 c 0,0.481247 0.0206,0.934995 0.0619,1.361243 0.0413,0.412495 0.13062,0.776867 0.26812,1.093116 0.1375,0.316249 0.34375,0.570622 0.61874,0.763119 0.27499,0.1925 0.63936,0.28875 1.09311,0.28875 0.1375,0 0.33,-0.01375 0.5775,-0.04124 0.24749,-0.04125 0.49499,-0.103127 0.74249,-0.185622 0.26125,-0.0825 0.50188,-0.185626 0.72188,-0.309375 0.23375,-0.123748 0.40562,-0.268121 0.51562,-0.43312 v -0.144376 -0.02064 -4.619968 -0.02065 -4.063101 h 2.51623 v 11.63242 h -2.24811 l -0.26812,-1.196239 c -0.165,0.151249 -0.37125,0.302497 -0.61875,0.453744 -0.2475,0.15125 -0.5225,0.295625 -0.825,0.433126 -0.28875,0.123748 -0.59124,0.226871 -0.90749,0.309369 -0.30249,0.06875 -0.60499,0.103128 -0.90749,0.103128 -0.33,0 -0.62562,-0.03438 -0.88686,-0.103128 -0.26125,-0.055 -0.508748,-0.144374 -0.742495,-0.268122 -0.219999,-0.137497 -0.433123,-0.288745 -0.639372,-0.453744 -0.206249,-0.164999 -0.412499,-0.350624 -0.618748,-0.556873 -0.233747,-0.233747 -0.41937,-0.501871 -0.556867,-0.804371 -0.137501,-0.316249 -0.240626,-0.639372 -0.309375,-0.969369 -0.055,-0.343747 -0.08937,-0.687493 -0.103123,-1.03124 v -1.010617 -6.146205 z m 21.759214,9.590562 c -0.46749,0.591243 -0.97624,1.03124 -1.52623,1.319991 -0.55,0.274998 -1.25125,0.412497 -2.10374,0.412497 -0.81125,0 -1.54687,-0.15125 -2.20686,-0.453749 -0.65999,-0.316249 -1.22374,-0.73562 -1.69124,-1.258115 -0.46749,-0.536247 -0.82499,-1.161868 -1.07249,-1.876863 -0.23375,-0.714995 -0.35062,-1.491865 -0.35062,-2.330608 0,-0.824995 0.13062,-1.594989 0.39187,-2.309984 0.26125,-0.714995 0.62562,-1.333742 1.09312,-1.85624 0.46749,-0.536243 1.03124,-0.955615 1.69123,-1.258115 0.66,-0.302496 1.39562,-0.453744 2.20686,-0.453744 0.8525,0 1.58125,0.144374 2.18624,0.433121 0.60499,0.274998 1.14124,0.70812 1.60874,1.299367 l -1.11374,1.340614 c -0.23375,-0.274998 -0.55688,-0.522496 -0.96937,-0.742495 -0.4125,-0.233747 -0.97625,-0.350621 -1.69124,-0.350621 -0.4125,0 -0.79062,0.09625 -1.13437,0.288746 -0.34375,0.1925 -0.63937,0.460623 -0.88687,0.80437 -0.23375,0.343747 -0.41937,0.749369 -0.55687,1.216868 -0.12375,0.467495 -0.18562,0.976241 -0.18562,1.526237 0,0.549996 0.055,1.065618 0.165,1.546866 0.12375,0.467495 0.30249,0.879992 0.53624,1.237491 0.23375,0.357496 0.50875,0.639369 0.825,0.845618 0.32999,0.206249 0.70811,0.309374 1.13436,0.309374 0.61875,0 1.13437,-0.09625 1.54687,-0.28875 0.42625,-0.206246 0.81812,-0.453744 1.17561,-0.742495 z m 3.36186,-9.590562 v -0.412498 h 2.51623 v 6.331833 c 0,0.481247 0.0206,0.934995 0.0619,1.361243 0.0413,0.412495 0.13064,0.776867 0.26813,1.093116 0.13749,0.316249 0.34374,0.570622 0.61874,0.763119 0.275,0.1925 0.63937,0.28875 1.09312,0.28875 0.1375,0 0.33,-0.01375 0.57749,-0.04124 0.2475,-0.04125 0.495,-0.103127 0.7425,-0.185622 0.26125,-0.0825 0.50187,-0.185626 0.72187,-0.309375 0.23375,-0.123748 0.40562,-0.268121 0.51562,-0.43312 v -0.144376 -0.02064 -4.619968 -0.02065 -4.063101 h 2.51624 v 11.63242 h -2.24811 l -0.26813,-1.196239 c -0.165,0.151249 -0.37125,0.302497 -0.61874,0.453744 -0.2475,0.15125 -0.5225,0.295625 -0.825,0.433126 -0.28875,0.123748 -0.59124,0.226871 -0.90749,0.309369 -0.3025,0.06875 -0.605,0.103128 -0.9075,0.103128 -0.32999,0 -0.62562,-0.03438 -0.88687,-0.103128 -0.26125,-0.055 -0.50874,-0.144374 -0.74249,-0.268122 -0.22,-0.137497 -0.43312,-0.288745 -0.63937,-0.453744 -0.20625,-0.164999 -0.4125,-0.350624 -0.61875,-0.556873 -0.23375,-0.233747 -0.41937,-0.501871 -0.55687,-0.804371 -0.13749,-0.316249 -0.24062,-0.639372 -0.30937,-0.969369 -0.055,-0.343747 -0.0894,-0.687493 -0.10312,-1.03124 v -1.010617 -6.146205 z"
       id="text1"
       style="font-size:40px;line-height:1.6;font-family:Allerta;-inkscape-font-specification:'Allerta, Normal';text-align:center;text-anchor:middle;white-space:pre;fill:#31cd3a;fill-opacity:1;stroke:none;stroke-width:1.99558;stroke-dasharray:none;stroke-opacity:1"
       aria-label="Ipucu" />
  </g>
</svg>
